%TF.GenerationSoftware,KiCad,Pcbnew,7.0.9*%
%TF.CreationDate,2024-03-17T17:30:52-07:00*%
%TF.ProjectId,PiEmulator,5069456d-756c-4617-946f-722e6b696361,rev?*%
%TF.SameCoordinates,Original*%
%TF.FileFunction,Soldermask,Bot*%
%TF.FilePolarity,Negative*%
%FSLAX46Y46*%
G04 Gerber Fmt 4.6, Leading zero omitted, Abs format (unit mm)*
G04 Created by KiCad (PCBNEW 7.0.9) date 2024-03-17 17:30:52*
%MOMM*%
%LPD*%
G01*
G04 APERTURE LIST*
G04 Aperture macros list*
%AMRoundRect*
0 Rectangle with rounded corners*
0 $1 Rounding radius*
0 $2 $3 $4 $5 $6 $7 $8 $9 X,Y pos of 4 corners*
0 Add a 4 corners polygon primitive as box body*
4,1,4,$2,$3,$4,$5,$6,$7,$8,$9,$2,$3,0*
0 Add four circle primitives for the rounded corners*
1,1,$1+$1,$2,$3*
1,1,$1+$1,$4,$5*
1,1,$1+$1,$6,$7*
1,1,$1+$1,$8,$9*
0 Add four rect primitives between the rounded corners*
20,1,$1+$1,$2,$3,$4,$5,0*
20,1,$1+$1,$4,$5,$6,$7,0*
20,1,$1+$1,$6,$7,$8,$9,0*
20,1,$1+$1,$8,$9,$2,$3,0*%
%AMFreePoly0*
4,1,77,1.115355,0.835355,1.130000,0.800000,1.130000,0.770000,1.900000,0.770000,1.935355,0.755355,1.950000,0.720000,1.950000,0.520000,1.935355,0.484645,1.900000,0.470000,1.130000,0.470000,1.130000,0.360000,1.900000,0.360000,1.935355,0.345355,1.950000,0.310000,1.950000,0.110000,1.935355,0.074645,1.900000,0.060000,1.130000,0.060000,1.130000,-0.050000,1.900000,-0.050000,
1.935355,-0.064645,1.950000,-0.100000,1.950000,-0.300000,1.935355,-0.335355,1.900000,-0.350000,1.130000,-0.350000,1.130000,-0.460000,1.900000,-0.460000,1.935355,-0.474645,1.950000,-0.510000,1.950000,-0.710000,1.935355,-0.745355,1.900000,-0.760000,1.130000,-0.760000,1.130000,-0.800000,1.115355,-0.835355,1.080000,-0.850000,-1.070000,-0.850000,-1.105355,-0.835355,-1.120000,-0.800000,
-1.120000,-0.760000,-1.900000,-0.760000,-1.935355,-0.745355,-1.950000,-0.710000,-1.950000,-0.510000,-1.935355,-0.474645,-1.900000,-0.460000,-1.120000,-0.460000,-1.120000,-0.350000,-1.900000,-0.350000,-1.935355,-0.335355,-1.950000,-0.300000,-1.950000,-0.100000,-1.935355,-0.064645,-1.900000,-0.050000,-1.120000,-0.050000,-1.120000,0.060000,-1.900000,0.060000,-1.935355,0.074645,-1.950000,0.110000,
-1.950000,0.310000,-1.935355,0.345355,-1.900000,0.360000,-1.120000,0.360000,-1.120000,0.470000,-1.900000,0.470000,-1.935355,0.484645,-1.950000,0.520000,-1.950000,0.720000,-1.935355,0.755355,-1.900000,0.770000,-1.120000,0.770000,-1.120000,0.800000,-1.105355,0.835355,-1.070000,0.850000,1.080000,0.850000,1.115355,0.835355,1.115355,0.835355,$1*%
G04 Aperture macros list end*
%ADD10C,0.900000*%
%ADD11C,2.500000*%
%ADD12R,1.700000X1.700000*%
%ADD13O,1.700000X1.700000*%
%ADD14C,2.750000*%
%ADD15RoundRect,0.102000X-0.754000X-0.754000X0.754000X-0.754000X0.754000X0.754000X-0.754000X0.754000X0*%
%ADD16C,1.712000*%
%ADD17RoundRect,0.135000X-0.135000X-0.185000X0.135000X-0.185000X0.135000X0.185000X-0.135000X0.185000X0*%
%ADD18R,0.800000X0.300000*%
%ADD19FreePoly0,90.000000*%
%ADD20C,0.650000*%
%ADD21R,1.450000X0.600000*%
%ADD22R,1.450000X0.300000*%
%ADD23O,1.600000X1.000000*%
%ADD24O,2.100000X1.000000*%
%ADD25RoundRect,0.250000X0.475000X-0.250000X0.475000X0.250000X-0.475000X0.250000X-0.475000X-0.250000X0*%
%ADD26C,1.800000*%
%ADD27RoundRect,0.075000X0.650000X0.075000X-0.650000X0.075000X-0.650000X-0.075000X0.650000X-0.075000X0*%
%ADD28R,1.570000X1.880000*%
%ADD29RoundRect,0.200000X0.275000X-0.200000X0.275000X0.200000X-0.275000X0.200000X-0.275000X-0.200000X0*%
%ADD30RoundRect,0.135000X0.185000X-0.135000X0.185000X0.135000X-0.185000X0.135000X-0.185000X-0.135000X0*%
%ADD31RoundRect,1.000000X1.000000X-1.000000X1.000000X1.000000X-1.000000X1.000000X-1.000000X-1.000000X0*%
%ADD32RoundRect,0.200000X-0.275000X0.200000X-0.275000X-0.200000X0.275000X-0.200000X0.275000X0.200000X0*%
%ADD33RoundRect,0.250000X-0.475000X0.250000X-0.475000X-0.250000X0.475000X-0.250000X0.475000X0.250000X0*%
%ADD34RoundRect,0.225000X0.225000X0.250000X-0.225000X0.250000X-0.225000X-0.250000X0.225000X-0.250000X0*%
%ADD35RoundRect,0.140000X0.140000X0.170000X-0.140000X0.170000X-0.140000X-0.170000X0.140000X-0.170000X0*%
%ADD36RoundRect,0.218750X-0.218750X-0.256250X0.218750X-0.256250X0.218750X0.256250X-0.218750X0.256250X0*%
%ADD37RoundRect,0.140000X-0.140000X-0.170000X0.140000X-0.170000X0.140000X0.170000X-0.140000X0.170000X0*%
%ADD38RoundRect,0.200000X-0.200000X-0.275000X0.200000X-0.275000X0.200000X0.275000X-0.200000X0.275000X0*%
%ADD39RoundRect,0.200000X0.200000X0.275000X-0.200000X0.275000X-0.200000X-0.275000X0.200000X-0.275000X0*%
%ADD40RoundRect,1.000000X-1.000000X1.000000X-1.000000X-1.000000X1.000000X-1.000000X1.000000X1.000000X0*%
G04 APERTURE END LIST*
D10*
%TO.C,SWL1*%
X74475000Y-73444000D03*
X70175000Y-73444000D03*
%TD*%
D11*
%TO.C,H1*%
X65325000Y-76374000D03*
%TD*%
%TO.C,H3*%
X235538000Y-126572000D03*
%TD*%
D10*
%TO.C,SWR1*%
X230688000Y-73444000D03*
X226388000Y-73444000D03*
%TD*%
D11*
%TO.C,H2*%
X65325000Y-126572000D03*
%TD*%
%TO.C,H4*%
X235538000Y-76374000D03*
%TD*%
D12*
%TO.C,U2*%
X94375000Y-83490000D03*
D13*
X94375000Y-86030000D03*
X94375000Y-88570000D03*
X94375000Y-91110000D03*
X94375000Y-93650000D03*
X94375000Y-96190000D03*
X94375000Y-98730000D03*
X94375000Y-101270000D03*
X94375000Y-103810000D03*
X94375000Y-106350000D03*
X94375000Y-108890000D03*
X94375000Y-111430000D03*
X94375000Y-113970000D03*
X94375000Y-116510000D03*
%TD*%
D14*
%TO.C,U1*%
X137387000Y-105532000D03*
X137387000Y-128532000D03*
X195387000Y-105532000D03*
X195387000Y-128532000D03*
D15*
X142257000Y-106802000D03*
D16*
X142257000Y-104262000D03*
X144797000Y-106802000D03*
X144797000Y-104262000D03*
X147337000Y-106802000D03*
X147337000Y-104262000D03*
X149877000Y-106802000D03*
X149877000Y-104262000D03*
X152417000Y-106802000D03*
X152417000Y-104262000D03*
X154957000Y-106802000D03*
X154957000Y-104262000D03*
X157497000Y-106802000D03*
X157497000Y-104262000D03*
X160037000Y-106802000D03*
X160037000Y-104262000D03*
X162577000Y-106802000D03*
X162577000Y-104262000D03*
X165117000Y-106802000D03*
X165117000Y-104262000D03*
X167657000Y-106802000D03*
X167657000Y-104262000D03*
X170197000Y-106802000D03*
X170197000Y-104262000D03*
X172737000Y-106802000D03*
X172737000Y-104262000D03*
X175277000Y-106802000D03*
X175277000Y-104262000D03*
X177817000Y-106802000D03*
X177817000Y-104262000D03*
X180357000Y-106802000D03*
X180357000Y-104262000D03*
X182897000Y-106802000D03*
X182897000Y-104262000D03*
X185437000Y-106802000D03*
X185437000Y-104262000D03*
X187977000Y-106802000D03*
X187977000Y-104262000D03*
X190517000Y-106802000D03*
X190517000Y-104262000D03*
%TD*%
D17*
%TO.C,R9*%
X134010500Y-83820000D03*
X135030500Y-83820000D03*
%TD*%
D18*
%TO.C,U4*%
X126565500Y-84042000D03*
X126565500Y-83542000D03*
X126565500Y-83042000D03*
X126565500Y-82542000D03*
X126565500Y-82042000D03*
X129565500Y-82042000D03*
X129565500Y-82542000D03*
X129565500Y-83042000D03*
X129565500Y-83542000D03*
X129565500Y-84042000D03*
D19*
X128065500Y-83042000D03*
%TD*%
D11*
%TO.C,SW2*%
X145711000Y-75565000D03*
X150411000Y-75565000D03*
X155111000Y-75565000D03*
%TD*%
D20*
%TO.C,J3*%
X65865000Y-115845000D03*
X65865000Y-110065000D03*
D21*
X67310000Y-116205000D03*
X67310000Y-115405000D03*
D22*
X67310000Y-114205000D03*
X67310000Y-113205000D03*
X67310000Y-112705000D03*
X67310000Y-111705000D03*
D21*
X67310000Y-110505000D03*
X67310000Y-109705000D03*
X67310000Y-109705000D03*
X67310000Y-110505000D03*
D22*
X67310000Y-111205000D03*
X67310000Y-112205000D03*
X67310000Y-113705000D03*
X67310000Y-114705000D03*
D21*
X67310000Y-115405000D03*
X67310000Y-116205000D03*
D23*
X62215000Y-117275000D03*
D24*
X66395000Y-117275000D03*
D23*
X62215000Y-108635000D03*
D24*
X66395000Y-108635000D03*
%TD*%
D25*
%TO.C,C6*%
X121818500Y-84963000D03*
X121818500Y-83063000D03*
%TD*%
D26*
%TO.C,U5*%
X85384000Y-81661000D03*
X87884000Y-81661000D03*
%TD*%
D27*
%TO.C,U3*%
X109996000Y-82063000D03*
X109996000Y-82563000D03*
X109996000Y-83063000D03*
X109996000Y-83563000D03*
X109996000Y-84063000D03*
X105696000Y-84063000D03*
X105696000Y-83563000D03*
X105696000Y-83063000D03*
X105696000Y-82563000D03*
X105696000Y-82063000D03*
D28*
X107846000Y-83063000D03*
%TD*%
D29*
%TO.C,R10*%
X133948500Y-82613000D03*
X133948500Y-80963000D03*
%TD*%
D30*
%TO.C,R5*%
X103251000Y-84455000D03*
X103251000Y-83435000D03*
%TD*%
D25*
%TO.C,C5*%
X123977500Y-84963000D03*
X123977500Y-83063000D03*
%TD*%
D31*
%TO.C,J1*%
X102883000Y-76086000D03*
%TD*%
D32*
%TO.C,R6*%
X129946500Y-76709000D03*
X129946500Y-78359000D03*
%TD*%
D33*
%TO.C,C3*%
X132359500Y-86045000D03*
X132359500Y-87945000D03*
%TD*%
D29*
%TO.C,R7*%
X131597500Y-78359000D03*
X131597500Y-76709000D03*
%TD*%
D34*
%TO.C,C2*%
X100851000Y-79502000D03*
X99301000Y-79502000D03*
%TD*%
D33*
%TO.C,C7*%
X121818500Y-79507000D03*
X121818500Y-81407000D03*
%TD*%
D35*
%TO.C,C4*%
X130934500Y-80772000D03*
X129974500Y-80772000D03*
%TD*%
D36*
%TO.C,L1*%
X127254000Y-87249000D03*
X128829000Y-87249000D03*
%TD*%
D37*
%TO.C,C1*%
X110645000Y-80772000D03*
X111605000Y-80772000D03*
%TD*%
D38*
%TO.C,R2*%
X113348000Y-84582000D03*
X114998000Y-84582000D03*
%TD*%
D29*
%TO.C,R8*%
X126263500Y-79883000D03*
X126263500Y-78233000D03*
%TD*%
D39*
%TO.C,R11*%
X135472500Y-79518000D03*
X133822500Y-79518000D03*
%TD*%
D38*
%TO.C,R1*%
X112840000Y-82423000D03*
X114490000Y-82423000D03*
%TD*%
D40*
%TO.C,J2*%
X97549000Y-75959000D03*
%TD*%
M02*
