%TF.GenerationSoftware,KiCad,Pcbnew,7.0.9*%
%TF.CreationDate,2024-03-17T17:30:52-07:00*%
%TF.ProjectId,PiEmulator,5069456d-756c-4617-946f-722e6b696361,rev?*%
%TF.SameCoordinates,Original*%
%TF.FileFunction,Soldermask,Top*%
%TF.FilePolarity,Negative*%
%FSLAX46Y46*%
G04 Gerber Fmt 4.6, Leading zero omitted, Abs format (unit mm)*
G04 Created by KiCad (PCBNEW 7.0.9) date 2024-03-17 17:30:52*
%MOMM*%
%LPD*%
G01*
G04 APERTURE LIST*
G04 Aperture macros list*
%AMRoundRect*
0 Rectangle with rounded corners*
0 $1 Rounding radius*
0 $2 $3 $4 $5 $6 $7 $8 $9 X,Y pos of 4 corners*
0 Add a 4 corners polygon primitive as box body*
4,1,4,$2,$3,$4,$5,$6,$7,$8,$9,$2,$3,0*
0 Add four circle primitives for the rounded corners*
1,1,$1+$1,$2,$3*
1,1,$1+$1,$4,$5*
1,1,$1+$1,$6,$7*
1,1,$1+$1,$8,$9*
0 Add four rect primitives between the rounded corners*
20,1,$1+$1,$2,$3,$4,$5,0*
20,1,$1+$1,$4,$5,$6,$7,0*
20,1,$1+$1,$6,$7,$8,$9,0*
20,1,$1+$1,$8,$9,$2,$3,0*%
%AMFreePoly0*
4,1,9,0.000354,0.000354,0.000500,0.000000,0.000354,-0.000354,0.000000,-0.000500,-0.000354,-0.000354,-0.000500,0.000000,-0.000354,0.000354,0.000000,0.000500,0.000354,0.000354,0.000354,0.000354,$1*%
%AMFreePoly1*
4,1,56,0.431349,2.208265,0.710994,2.134709,0.978897,2.025896,1.230633,1.883624,1.462043,1.710241,1.669306,1.508612,1.848999,1.282067,1.998154,1.034348,2.114308,0.769545,2.129385,0.684040,2.114308,0.598535,2.070896,0.523343,2.004385,0.467534,1.922797,0.437838,1.835973,0.437838,1.754385,0.467534,1.687874,0.523343,1.644461,0.598535,1.601319,0.716896,1.482119,0.938874,
1.332352,1.141490,1.155108,1.320563,0.954041,1.472402,0.733299,1.593874,0.497433,1.682475,0.251308,1.736377,0.000000,1.754469,-0.251308,1.736377,-0.497433,1.682475,-0.733299,1.593874,-0.954041,1.472402,-1.155108,1.320563,-1.332352,1.141490,-1.482119,0.938874,-1.601319,0.716896,-1.644462,0.598535,-1.687874,0.523343,-1.754385,0.467534,-1.835973,0.437838,-1.922797,0.437838,
-2.004385,0.467534,-2.070896,0.523343,-2.114308,0.598535,-2.129385,0.684040,-2.114308,0.769545,-1.998154,1.034348,-1.848999,1.282067,-1.669306,1.508612,-1.462043,1.710241,-1.230633,1.883624,-0.978897,2.025896,-0.710994,2.134709,-0.431349,2.208265,-0.144579,2.245349,0.144579,2.245349,0.431349,2.208265,0.431349,2.208265,$1*%
G04 Aperture macros list end*
%ADD10C,0.900000*%
%ADD11R,0.750000X1.800000*%
%ADD12R,0.600000X1.800000*%
%ADD13R,1.300000X0.900000*%
%ADD14C,2.500000*%
%ADD15R,2.100000X1.200000*%
%ADD16RoundRect,0.125000X-0.125000X-1.449999X0.125000X-1.449999X0.125000X1.449999X-0.125000X1.449999X0*%
%ADD17RoundRect,0.150000X-3.050000X-0.150000X3.050000X-0.150000X3.050000X0.150000X-3.050000X0.150000X0*%
%ADD18FreePoly0,0.000000*%
%ADD19FreePoly1,0.000000*%
%ADD20RoundRect,0.125000X-0.125000X-1.362499X0.125000X-1.362499X0.125000X1.362499X-0.125000X1.362499X0*%
%ADD21FreePoly0,180.000000*%
%ADD22FreePoly1,180.000000*%
%ADD23R,1.700000X1.700000*%
%ADD24O,1.700000X1.700000*%
%ADD25RoundRect,0.147500X-0.147500X-0.172500X0.147500X-0.172500X0.147500X0.172500X-0.147500X0.172500X0*%
%ADD26RoundRect,0.135000X-0.135000X-0.185000X0.135000X-0.185000X0.135000X0.185000X-0.135000X0.185000X0*%
%ADD27C,2.750000*%
%ADD28RoundRect,0.102000X-0.754000X-0.754000X0.754000X-0.754000X0.754000X0.754000X-0.754000X0.754000X0*%
%ADD29C,1.712000*%
%ADD30C,0.650000*%
%ADD31O,1.600000X1.000000*%
%ADD32O,2.100000X1.000000*%
%ADD33C,1.800000*%
G04 APERTURE END LIST*
D10*
%TO.C,SWL1*%
X74475000Y-73444000D03*
X70175000Y-73444000D03*
D11*
X73555000Y-74344000D03*
D12*
X72325000Y-74344000D03*
D11*
X71095000Y-74344000D03*
D13*
X74175000Y-72404000D03*
X70475000Y-72404000D03*
%TD*%
D14*
%TO.C,H1*%
X65325000Y-76374000D03*
%TD*%
D15*
%TO.C,SWB1*%
X220980000Y-110427000D03*
D16*
X223580000Y-112127000D03*
D17*
X223980000Y-110427000D03*
D18*
X223980000Y-112427000D03*
D19*
X223980000Y-112427000D03*
D20*
X225180000Y-111714500D03*
D15*
X226980000Y-110427000D03*
X220980000Y-114427000D03*
D20*
X222780000Y-113127000D03*
D21*
X223980000Y-112427000D03*
D22*
X223980000Y-112427000D03*
D17*
X223980000Y-114427000D03*
D16*
X224430000Y-112701999D03*
D15*
X226980000Y-114427000D03*
%TD*%
D14*
%TO.C,H3*%
X235538000Y-126572000D03*
%TD*%
D10*
%TO.C,SWR1*%
X230688000Y-73444000D03*
X226388000Y-73444000D03*
D11*
X229768000Y-74344000D03*
D12*
X228538000Y-74344000D03*
D11*
X227308000Y-74344000D03*
D13*
X230388000Y-72404000D03*
X226688000Y-72404000D03*
%TD*%
D14*
%TO.C,H2*%
X65325000Y-126572000D03*
%TD*%
D15*
%TO.C,SWA1*%
X232980000Y-98427000D03*
D16*
X235580000Y-100127000D03*
D17*
X235980000Y-98427000D03*
D18*
X235980000Y-100427000D03*
D19*
X235980000Y-100427000D03*
D20*
X237180000Y-99714500D03*
D15*
X238980000Y-98427000D03*
X232980000Y-102427000D03*
D20*
X234780000Y-101127000D03*
D21*
X235980000Y-100427000D03*
D22*
X235980000Y-100427000D03*
D17*
X235980000Y-102427000D03*
D16*
X236430000Y-100701999D03*
D15*
X238980000Y-102427000D03*
%TD*%
D14*
%TO.C,H4*%
X235538000Y-76374000D03*
%TD*%
D23*
%TO.C,U2*%
X94375000Y-83490000D03*
D24*
X94375000Y-86030000D03*
X94375000Y-88570000D03*
X94375000Y-91110000D03*
X94375000Y-93650000D03*
X94375000Y-96190000D03*
X94375000Y-98730000D03*
X94375000Y-101270000D03*
X94375000Y-103810000D03*
X94375000Y-106350000D03*
X94375000Y-108890000D03*
X94375000Y-111430000D03*
X94375000Y-113970000D03*
X94375000Y-116510000D03*
%TD*%
D15*
%TO.C,SWRIGHT1*%
X78980000Y-98427000D03*
D16*
X81580000Y-100127000D03*
D17*
X81980000Y-98427000D03*
D18*
X81980000Y-100427000D03*
D19*
X81980000Y-100427000D03*
D20*
X83180000Y-99714500D03*
D15*
X84980000Y-98427000D03*
X78980000Y-102427000D03*
D20*
X80780000Y-101127000D03*
D21*
X81980000Y-100427000D03*
D22*
X81980000Y-100427000D03*
D17*
X81980000Y-102427000D03*
D16*
X82430000Y-100701999D03*
D15*
X84980000Y-102427000D03*
%TD*%
D25*
%TO.C,D2*%
X203754000Y-86868000D03*
X204724000Y-86868000D03*
%TD*%
D15*
%TO.C,SWLEFT1*%
X64980000Y-98427000D03*
D16*
X67580000Y-100127000D03*
D17*
X67980000Y-98427000D03*
D18*
X67980000Y-100427000D03*
D19*
X67980000Y-100427000D03*
D20*
X69180000Y-99714500D03*
D15*
X70980000Y-98427000D03*
X64980000Y-102427000D03*
D20*
X66780000Y-101127000D03*
D21*
X67980000Y-100427000D03*
D22*
X67980000Y-100427000D03*
D17*
X67980000Y-102427000D03*
D16*
X68430000Y-100701999D03*
D15*
X70980000Y-102427000D03*
%TD*%
D26*
%TO.C,R3*%
X205865000Y-84963000D03*
X206885000Y-84963000D03*
%TD*%
D15*
%TO.C,SWUP1*%
X71980000Y-91427000D03*
D16*
X74580000Y-93127000D03*
D17*
X74980000Y-91427000D03*
D18*
X74980000Y-93427000D03*
D19*
X74980000Y-93427000D03*
D20*
X76180000Y-92714500D03*
D15*
X77980000Y-91427000D03*
X71980000Y-95427000D03*
D20*
X73780000Y-94127000D03*
D21*
X74980000Y-93427000D03*
D22*
X74980000Y-93427000D03*
D17*
X74980000Y-95427000D03*
D16*
X75430000Y-93701999D03*
D15*
X77980000Y-95427000D03*
%TD*%
%TO.C,SWDOWN1*%
X71980000Y-105427000D03*
D16*
X74580000Y-107127000D03*
D17*
X74980000Y-105427000D03*
D18*
X74980000Y-107427000D03*
D19*
X74980000Y-107427000D03*
D20*
X76180000Y-106714500D03*
D15*
X77980000Y-105427000D03*
X71980000Y-109427000D03*
D20*
X73780000Y-108127000D03*
D21*
X74980000Y-107427000D03*
D22*
X74980000Y-107427000D03*
D17*
X74980000Y-109427000D03*
D16*
X75430000Y-107701999D03*
D15*
X77980000Y-109427000D03*
%TD*%
D26*
%TO.C,R4*%
X205863000Y-86868000D03*
X206883000Y-86868000D03*
%TD*%
D27*
%TO.C,U1*%
X137387000Y-105532000D03*
X137387000Y-128532000D03*
X195387000Y-105532000D03*
X195387000Y-128532000D03*
D28*
X142257000Y-106802000D03*
D29*
X142257000Y-104262000D03*
X144797000Y-106802000D03*
X144797000Y-104262000D03*
X147337000Y-106802000D03*
X147337000Y-104262000D03*
X149877000Y-106802000D03*
X149877000Y-104262000D03*
X152417000Y-106802000D03*
X152417000Y-104262000D03*
X154957000Y-106802000D03*
X154957000Y-104262000D03*
X157497000Y-106802000D03*
X157497000Y-104262000D03*
X160037000Y-106802000D03*
X160037000Y-104262000D03*
X162577000Y-106802000D03*
X162577000Y-104262000D03*
X165117000Y-106802000D03*
X165117000Y-104262000D03*
X167657000Y-106802000D03*
X167657000Y-104262000D03*
X170197000Y-106802000D03*
X170197000Y-104262000D03*
X172737000Y-106802000D03*
X172737000Y-104262000D03*
X175277000Y-106802000D03*
X175277000Y-104262000D03*
X177817000Y-106802000D03*
X177817000Y-104262000D03*
X180357000Y-106802000D03*
X180357000Y-104262000D03*
X182897000Y-106802000D03*
X182897000Y-104262000D03*
X185437000Y-106802000D03*
X185437000Y-104262000D03*
X187977000Y-106802000D03*
X187977000Y-104262000D03*
X190517000Y-106802000D03*
X190517000Y-104262000D03*
%TD*%
D15*
%TO.C,SWX1*%
X220980000Y-86427000D03*
D16*
X223580000Y-88127000D03*
D17*
X223980000Y-86427000D03*
D18*
X223980000Y-88427000D03*
D19*
X223980000Y-88427000D03*
D20*
X225180000Y-87714500D03*
D15*
X226980000Y-86427000D03*
X220980000Y-90427000D03*
D20*
X222780000Y-89127000D03*
D21*
X223980000Y-88427000D03*
D22*
X223980000Y-88427000D03*
D17*
X223980000Y-90427000D03*
D16*
X224430000Y-88701999D03*
D15*
X226980000Y-90427000D03*
%TD*%
%TO.C,SWACTION1*%
X81376000Y-120968000D03*
D16*
X83976000Y-122668000D03*
D17*
X84376000Y-120968000D03*
D18*
X84376000Y-122968000D03*
D19*
X84376000Y-122968000D03*
D20*
X85576000Y-122255500D03*
D15*
X87376000Y-120968000D03*
X81376000Y-124968000D03*
D20*
X83176000Y-123668000D03*
D21*
X84376000Y-122968000D03*
D22*
X84376000Y-122968000D03*
D17*
X84376000Y-124968000D03*
D16*
X84826000Y-123242999D03*
D15*
X87376000Y-124968000D03*
%TD*%
%TO.C,SWSELECT1*%
X82325000Y-73374000D03*
D16*
X84925000Y-75074000D03*
D17*
X85325000Y-73374000D03*
D18*
X85325000Y-75374000D03*
D19*
X85325000Y-75374000D03*
D20*
X86525000Y-74661500D03*
D15*
X88325000Y-73374000D03*
X82325000Y-77374000D03*
D20*
X84125000Y-76074000D03*
D21*
X85325000Y-75374000D03*
D22*
X85325000Y-75374000D03*
D17*
X85325000Y-77374000D03*
D16*
X85775000Y-75648999D03*
D15*
X88325000Y-77374000D03*
%TD*%
%TO.C,SWSTART1*%
X203980000Y-73427000D03*
D16*
X206580000Y-75127000D03*
D17*
X206980000Y-73427000D03*
D18*
X206980000Y-75427000D03*
D19*
X206980000Y-75427000D03*
D20*
X208180000Y-74714500D03*
D15*
X209980000Y-73427000D03*
X203980000Y-77427000D03*
D20*
X205780000Y-76127000D03*
D21*
X206980000Y-75427000D03*
D22*
X206980000Y-75427000D03*
D17*
X206980000Y-77427000D03*
D16*
X207430000Y-75701999D03*
D15*
X209980000Y-77427000D03*
%TD*%
D25*
%TO.C,D1*%
X203731000Y-84963000D03*
X204701000Y-84963000D03*
%TD*%
D15*
%TO.C,SWY1*%
X208980000Y-98427000D03*
D16*
X211580000Y-100127000D03*
D17*
X211980000Y-98427000D03*
D18*
X211980000Y-100427000D03*
D19*
X211980000Y-100427000D03*
D20*
X213180000Y-99714500D03*
D15*
X214980000Y-98427000D03*
X208980000Y-102427000D03*
D20*
X210780000Y-101127000D03*
D21*
X211980000Y-100427000D03*
D22*
X211980000Y-100427000D03*
D17*
X211980000Y-102427000D03*
D16*
X212430000Y-100701999D03*
D15*
X214980000Y-102427000D03*
%TD*%
D14*
%TO.C,SW2*%
X145711000Y-75565000D03*
X150411000Y-75565000D03*
X155111000Y-75565000D03*
%TD*%
D30*
%TO.C,J3*%
X65865000Y-115845000D03*
X65865000Y-110065000D03*
D31*
X62215000Y-117275000D03*
D32*
X66395000Y-117275000D03*
D31*
X62215000Y-108635000D03*
D32*
X66395000Y-108635000D03*
%TD*%
D33*
%TO.C,U5*%
X85384000Y-81661000D03*
X87884000Y-81661000D03*
%TD*%
M02*
