%TF.GenerationSoftware,KiCad,Pcbnew,7.0.9*%
%TF.CreationDate,2024-03-17T17:30:52-07:00*%
%TF.ProjectId,PiEmulator,5069456d-756c-4617-946f-722e6b696361,rev?*%
%TF.SameCoordinates,Original*%
%TF.FileFunction,Legend,Bot*%
%TF.FilePolarity,Positive*%
%FSLAX46Y46*%
G04 Gerber Fmt 4.6, Leading zero omitted, Abs format (unit mm)*
G04 Created by KiCad (PCBNEW 7.0.9) date 2024-03-17 17:30:52*
%MOMM*%
%LPD*%
G01*
G04 APERTURE LIST*
%ADD10C,0.150000*%
%ADD11C,0.120000*%
%ADD12C,0.250000*%
G04 APERTURE END LIST*
D10*
X134687166Y-85444819D02*
X135020499Y-84968628D01*
X135258594Y-85444819D02*
X135258594Y-84444819D01*
X135258594Y-84444819D02*
X134877642Y-84444819D01*
X134877642Y-84444819D02*
X134782404Y-84492438D01*
X134782404Y-84492438D02*
X134734785Y-84540057D01*
X134734785Y-84540057D02*
X134687166Y-84635295D01*
X134687166Y-84635295D02*
X134687166Y-84778152D01*
X134687166Y-84778152D02*
X134734785Y-84873390D01*
X134734785Y-84873390D02*
X134782404Y-84921009D01*
X134782404Y-84921009D02*
X134877642Y-84968628D01*
X134877642Y-84968628D02*
X135258594Y-84968628D01*
X134210975Y-85444819D02*
X134020499Y-85444819D01*
X134020499Y-85444819D02*
X133925261Y-85397200D01*
X133925261Y-85397200D02*
X133877642Y-85349580D01*
X133877642Y-85349580D02*
X133782404Y-85206723D01*
X133782404Y-85206723D02*
X133734785Y-85016247D01*
X133734785Y-85016247D02*
X133734785Y-84635295D01*
X133734785Y-84635295D02*
X133782404Y-84540057D01*
X133782404Y-84540057D02*
X133830023Y-84492438D01*
X133830023Y-84492438D02*
X133925261Y-84444819D01*
X133925261Y-84444819D02*
X134115737Y-84444819D01*
X134115737Y-84444819D02*
X134210975Y-84492438D01*
X134210975Y-84492438D02*
X134258594Y-84540057D01*
X134258594Y-84540057D02*
X134306213Y-84635295D01*
X134306213Y-84635295D02*
X134306213Y-84873390D01*
X134306213Y-84873390D02*
X134258594Y-84968628D01*
X134258594Y-84968628D02*
X134210975Y-85016247D01*
X134210975Y-85016247D02*
X134115737Y-85063866D01*
X134115737Y-85063866D02*
X133925261Y-85063866D01*
X133925261Y-85063866D02*
X133830023Y-85016247D01*
X133830023Y-85016247D02*
X133782404Y-84968628D01*
X133782404Y-84968628D02*
X133734785Y-84873390D01*
X128904904Y-79845819D02*
X128904904Y-80655342D01*
X128904904Y-80655342D02*
X128857285Y-80750580D01*
X128857285Y-80750580D02*
X128809666Y-80798200D01*
X128809666Y-80798200D02*
X128714428Y-80845819D01*
X128714428Y-80845819D02*
X128523952Y-80845819D01*
X128523952Y-80845819D02*
X128428714Y-80798200D01*
X128428714Y-80798200D02*
X128381095Y-80750580D01*
X128381095Y-80750580D02*
X128333476Y-80655342D01*
X128333476Y-80655342D02*
X128333476Y-79845819D01*
X127428714Y-80179152D02*
X127428714Y-80845819D01*
X127666809Y-79798200D02*
X127904904Y-80512485D01*
X127904904Y-80512485D02*
X127285857Y-80512485D01*
X151744332Y-79972200D02*
X151601475Y-80019819D01*
X151601475Y-80019819D02*
X151363380Y-80019819D01*
X151363380Y-80019819D02*
X151268142Y-79972200D01*
X151268142Y-79972200D02*
X151220523Y-79924580D01*
X151220523Y-79924580D02*
X151172904Y-79829342D01*
X151172904Y-79829342D02*
X151172904Y-79734104D01*
X151172904Y-79734104D02*
X151220523Y-79638866D01*
X151220523Y-79638866D02*
X151268142Y-79591247D01*
X151268142Y-79591247D02*
X151363380Y-79543628D01*
X151363380Y-79543628D02*
X151553856Y-79496009D01*
X151553856Y-79496009D02*
X151649094Y-79448390D01*
X151649094Y-79448390D02*
X151696713Y-79400771D01*
X151696713Y-79400771D02*
X151744332Y-79305533D01*
X151744332Y-79305533D02*
X151744332Y-79210295D01*
X151744332Y-79210295D02*
X151696713Y-79115057D01*
X151696713Y-79115057D02*
X151649094Y-79067438D01*
X151649094Y-79067438D02*
X151553856Y-79019819D01*
X151553856Y-79019819D02*
X151315761Y-79019819D01*
X151315761Y-79019819D02*
X151172904Y-79067438D01*
X150839570Y-79019819D02*
X150601475Y-80019819D01*
X150601475Y-80019819D02*
X150410999Y-79305533D01*
X150410999Y-79305533D02*
X150220523Y-80019819D01*
X150220523Y-80019819D02*
X149982428Y-79019819D01*
X149649094Y-79115057D02*
X149601475Y-79067438D01*
X149601475Y-79067438D02*
X149506237Y-79019819D01*
X149506237Y-79019819D02*
X149268142Y-79019819D01*
X149268142Y-79019819D02*
X149172904Y-79067438D01*
X149172904Y-79067438D02*
X149125285Y-79115057D01*
X149125285Y-79115057D02*
X149077666Y-79210295D01*
X149077666Y-79210295D02*
X149077666Y-79305533D01*
X149077666Y-79305533D02*
X149125285Y-79448390D01*
X149125285Y-79448390D02*
X149696713Y-80019819D01*
X149696713Y-80019819D02*
X149077666Y-80019819D01*
X63787819Y-106271666D02*
X64502104Y-106271666D01*
X64502104Y-106271666D02*
X64644961Y-106224047D01*
X64644961Y-106224047D02*
X64740200Y-106128809D01*
X64740200Y-106128809D02*
X64787819Y-105985952D01*
X64787819Y-105985952D02*
X64787819Y-105890714D01*
X63787819Y-106652619D02*
X63787819Y-107271666D01*
X63787819Y-107271666D02*
X64168771Y-106938333D01*
X64168771Y-106938333D02*
X64168771Y-107081190D01*
X64168771Y-107081190D02*
X64216390Y-107176428D01*
X64216390Y-107176428D02*
X64264009Y-107224047D01*
X64264009Y-107224047D02*
X64359247Y-107271666D01*
X64359247Y-107271666D02*
X64597342Y-107271666D01*
X64597342Y-107271666D02*
X64692580Y-107224047D01*
X64692580Y-107224047D02*
X64740200Y-107176428D01*
X64740200Y-107176428D02*
X64787819Y-107081190D01*
X64787819Y-107081190D02*
X64787819Y-106795476D01*
X64787819Y-106795476D02*
X64740200Y-106700238D01*
X64740200Y-106700238D02*
X64692580Y-106652619D01*
X121959666Y-86846580D02*
X122007285Y-86894200D01*
X122007285Y-86894200D02*
X122150142Y-86941819D01*
X122150142Y-86941819D02*
X122245380Y-86941819D01*
X122245380Y-86941819D02*
X122388237Y-86894200D01*
X122388237Y-86894200D02*
X122483475Y-86798961D01*
X122483475Y-86798961D02*
X122531094Y-86703723D01*
X122531094Y-86703723D02*
X122578713Y-86513247D01*
X122578713Y-86513247D02*
X122578713Y-86370390D01*
X122578713Y-86370390D02*
X122531094Y-86179914D01*
X122531094Y-86179914D02*
X122483475Y-86084676D01*
X122483475Y-86084676D02*
X122388237Y-85989438D01*
X122388237Y-85989438D02*
X122245380Y-85941819D01*
X122245380Y-85941819D02*
X122150142Y-85941819D01*
X122150142Y-85941819D02*
X122007285Y-85989438D01*
X122007285Y-85989438D02*
X121959666Y-86037057D01*
X121102523Y-85941819D02*
X121292999Y-85941819D01*
X121292999Y-85941819D02*
X121388237Y-85989438D01*
X121388237Y-85989438D02*
X121435856Y-86037057D01*
X121435856Y-86037057D02*
X121531094Y-86179914D01*
X121531094Y-86179914D02*
X121578713Y-86370390D01*
X121578713Y-86370390D02*
X121578713Y-86751342D01*
X121578713Y-86751342D02*
X121531094Y-86846580D01*
X121531094Y-86846580D02*
X121483475Y-86894200D01*
X121483475Y-86894200D02*
X121388237Y-86941819D01*
X121388237Y-86941819D02*
X121197761Y-86941819D01*
X121197761Y-86941819D02*
X121102523Y-86894200D01*
X121102523Y-86894200D02*
X121054904Y-86846580D01*
X121054904Y-86846580D02*
X121007285Y-86751342D01*
X121007285Y-86751342D02*
X121007285Y-86513247D01*
X121007285Y-86513247D02*
X121054904Y-86418009D01*
X121054904Y-86418009D02*
X121102523Y-86370390D01*
X121102523Y-86370390D02*
X121197761Y-86322771D01*
X121197761Y-86322771D02*
X121388237Y-86322771D01*
X121388237Y-86322771D02*
X121483475Y-86370390D01*
X121483475Y-86370390D02*
X121531094Y-86418009D01*
X121531094Y-86418009D02*
X121578713Y-86513247D01*
X87395904Y-85115819D02*
X87395904Y-85925342D01*
X87395904Y-85925342D02*
X87348285Y-86020580D01*
X87348285Y-86020580D02*
X87300666Y-86068200D01*
X87300666Y-86068200D02*
X87205428Y-86115819D01*
X87205428Y-86115819D02*
X87014952Y-86115819D01*
X87014952Y-86115819D02*
X86919714Y-86068200D01*
X86919714Y-86068200D02*
X86872095Y-86020580D01*
X86872095Y-86020580D02*
X86824476Y-85925342D01*
X86824476Y-85925342D02*
X86824476Y-85115819D01*
X85872095Y-85115819D02*
X86348285Y-85115819D01*
X86348285Y-85115819D02*
X86395904Y-85592009D01*
X86395904Y-85592009D02*
X86348285Y-85544390D01*
X86348285Y-85544390D02*
X86253047Y-85496771D01*
X86253047Y-85496771D02*
X86014952Y-85496771D01*
X86014952Y-85496771D02*
X85919714Y-85544390D01*
X85919714Y-85544390D02*
X85872095Y-85592009D01*
X85872095Y-85592009D02*
X85824476Y-85687247D01*
X85824476Y-85687247D02*
X85824476Y-85925342D01*
X85824476Y-85925342D02*
X85872095Y-86020580D01*
X85872095Y-86020580D02*
X85919714Y-86068200D01*
X85919714Y-86068200D02*
X86014952Y-86115819D01*
X86014952Y-86115819D02*
X86253047Y-86115819D01*
X86253047Y-86115819D02*
X86348285Y-86068200D01*
X86348285Y-86068200D02*
X86395904Y-86020580D01*
X108607904Y-85052819D02*
X108607904Y-85862342D01*
X108607904Y-85862342D02*
X108560285Y-85957580D01*
X108560285Y-85957580D02*
X108512666Y-86005200D01*
X108512666Y-86005200D02*
X108417428Y-86052819D01*
X108417428Y-86052819D02*
X108226952Y-86052819D01*
X108226952Y-86052819D02*
X108131714Y-86005200D01*
X108131714Y-86005200D02*
X108084095Y-85957580D01*
X108084095Y-85957580D02*
X108036476Y-85862342D01*
X108036476Y-85862342D02*
X108036476Y-85052819D01*
X107655523Y-85052819D02*
X107036476Y-85052819D01*
X107036476Y-85052819D02*
X107369809Y-85433771D01*
X107369809Y-85433771D02*
X107226952Y-85433771D01*
X107226952Y-85433771D02*
X107131714Y-85481390D01*
X107131714Y-85481390D02*
X107084095Y-85529009D01*
X107084095Y-85529009D02*
X107036476Y-85624247D01*
X107036476Y-85624247D02*
X107036476Y-85862342D01*
X107036476Y-85862342D02*
X107084095Y-85957580D01*
X107084095Y-85957580D02*
X107131714Y-86005200D01*
X107131714Y-86005200D02*
X107226952Y-86052819D01*
X107226952Y-86052819D02*
X107512666Y-86052819D01*
X107512666Y-86052819D02*
X107607904Y-86005200D01*
X107607904Y-86005200D02*
X107655523Y-85957580D01*
X135833319Y-81145142D02*
X135357128Y-80811809D01*
X135833319Y-80573714D02*
X134833319Y-80573714D01*
X134833319Y-80573714D02*
X134833319Y-80954666D01*
X134833319Y-80954666D02*
X134880938Y-81049904D01*
X134880938Y-81049904D02*
X134928557Y-81097523D01*
X134928557Y-81097523D02*
X135023795Y-81145142D01*
X135023795Y-81145142D02*
X135166652Y-81145142D01*
X135166652Y-81145142D02*
X135261890Y-81097523D01*
X135261890Y-81097523D02*
X135309509Y-81049904D01*
X135309509Y-81049904D02*
X135357128Y-80954666D01*
X135357128Y-80954666D02*
X135357128Y-80573714D01*
X135833319Y-82097523D02*
X135833319Y-81526095D01*
X135833319Y-81811809D02*
X134833319Y-81811809D01*
X134833319Y-81811809D02*
X134976176Y-81716571D01*
X134976176Y-81716571D02*
X135071414Y-81621333D01*
X135071414Y-81621333D02*
X135119033Y-81526095D01*
X134833319Y-82716571D02*
X134833319Y-82811809D01*
X134833319Y-82811809D02*
X134880938Y-82907047D01*
X134880938Y-82907047D02*
X134928557Y-82954666D01*
X134928557Y-82954666D02*
X135023795Y-83002285D01*
X135023795Y-83002285D02*
X135214271Y-83049904D01*
X135214271Y-83049904D02*
X135452366Y-83049904D01*
X135452366Y-83049904D02*
X135642842Y-83002285D01*
X135642842Y-83002285D02*
X135738080Y-82954666D01*
X135738080Y-82954666D02*
X135785700Y-82907047D01*
X135785700Y-82907047D02*
X135833319Y-82811809D01*
X135833319Y-82811809D02*
X135833319Y-82716571D01*
X135833319Y-82716571D02*
X135785700Y-82621333D01*
X135785700Y-82621333D02*
X135738080Y-82573714D01*
X135738080Y-82573714D02*
X135642842Y-82526095D01*
X135642842Y-82526095D02*
X135452366Y-82478476D01*
X135452366Y-82478476D02*
X135214271Y-82478476D01*
X135214271Y-82478476D02*
X135023795Y-82526095D01*
X135023795Y-82526095D02*
X134928557Y-82573714D01*
X134928557Y-82573714D02*
X134880938Y-82621333D01*
X134880938Y-82621333D02*
X134833319Y-82716571D01*
X102562819Y-83780333D02*
X102086628Y-83447000D01*
X102562819Y-83208905D02*
X101562819Y-83208905D01*
X101562819Y-83208905D02*
X101562819Y-83589857D01*
X101562819Y-83589857D02*
X101610438Y-83685095D01*
X101610438Y-83685095D02*
X101658057Y-83732714D01*
X101658057Y-83732714D02*
X101753295Y-83780333D01*
X101753295Y-83780333D02*
X101896152Y-83780333D01*
X101896152Y-83780333D02*
X101991390Y-83732714D01*
X101991390Y-83732714D02*
X102039009Y-83685095D01*
X102039009Y-83685095D02*
X102086628Y-83589857D01*
X102086628Y-83589857D02*
X102086628Y-83208905D01*
X101562819Y-84685095D02*
X101562819Y-84208905D01*
X101562819Y-84208905D02*
X102039009Y-84161286D01*
X102039009Y-84161286D02*
X101991390Y-84208905D01*
X101991390Y-84208905D02*
X101943771Y-84304143D01*
X101943771Y-84304143D02*
X101943771Y-84542238D01*
X101943771Y-84542238D02*
X101991390Y-84637476D01*
X101991390Y-84637476D02*
X102039009Y-84685095D01*
X102039009Y-84685095D02*
X102134247Y-84732714D01*
X102134247Y-84732714D02*
X102372342Y-84732714D01*
X102372342Y-84732714D02*
X102467580Y-84685095D01*
X102467580Y-84685095D02*
X102515200Y-84637476D01*
X102515200Y-84637476D02*
X102562819Y-84542238D01*
X102562819Y-84542238D02*
X102562819Y-84304143D01*
X102562819Y-84304143D02*
X102515200Y-84208905D01*
X102515200Y-84208905D02*
X102467580Y-84161286D01*
X124118666Y-86846580D02*
X124166285Y-86894200D01*
X124166285Y-86894200D02*
X124309142Y-86941819D01*
X124309142Y-86941819D02*
X124404380Y-86941819D01*
X124404380Y-86941819D02*
X124547237Y-86894200D01*
X124547237Y-86894200D02*
X124642475Y-86798961D01*
X124642475Y-86798961D02*
X124690094Y-86703723D01*
X124690094Y-86703723D02*
X124737713Y-86513247D01*
X124737713Y-86513247D02*
X124737713Y-86370390D01*
X124737713Y-86370390D02*
X124690094Y-86179914D01*
X124690094Y-86179914D02*
X124642475Y-86084676D01*
X124642475Y-86084676D02*
X124547237Y-85989438D01*
X124547237Y-85989438D02*
X124404380Y-85941819D01*
X124404380Y-85941819D02*
X124309142Y-85941819D01*
X124309142Y-85941819D02*
X124166285Y-85989438D01*
X124166285Y-85989438D02*
X124118666Y-86037057D01*
X123213904Y-85941819D02*
X123690094Y-85941819D01*
X123690094Y-85941819D02*
X123737713Y-86418009D01*
X123737713Y-86418009D02*
X123690094Y-86370390D01*
X123690094Y-86370390D02*
X123594856Y-86322771D01*
X123594856Y-86322771D02*
X123356761Y-86322771D01*
X123356761Y-86322771D02*
X123261523Y-86370390D01*
X123261523Y-86370390D02*
X123213904Y-86418009D01*
X123213904Y-86418009D02*
X123166285Y-86513247D01*
X123166285Y-86513247D02*
X123166285Y-86751342D01*
X123166285Y-86751342D02*
X123213904Y-86846580D01*
X123213904Y-86846580D02*
X123261523Y-86894200D01*
X123261523Y-86894200D02*
X123356761Y-86941819D01*
X123356761Y-86941819D02*
X123594856Y-86941819D01*
X123594856Y-86941819D02*
X123690094Y-86894200D01*
X123690094Y-86894200D02*
X123737713Y-86846580D01*
X129960666Y-75892819D02*
X130293999Y-75416628D01*
X130532094Y-75892819D02*
X130532094Y-74892819D01*
X130532094Y-74892819D02*
X130151142Y-74892819D01*
X130151142Y-74892819D02*
X130055904Y-74940438D01*
X130055904Y-74940438D02*
X130008285Y-74988057D01*
X130008285Y-74988057D02*
X129960666Y-75083295D01*
X129960666Y-75083295D02*
X129960666Y-75226152D01*
X129960666Y-75226152D02*
X130008285Y-75321390D01*
X130008285Y-75321390D02*
X130055904Y-75369009D01*
X130055904Y-75369009D02*
X130151142Y-75416628D01*
X130151142Y-75416628D02*
X130532094Y-75416628D01*
X129103523Y-74892819D02*
X129293999Y-74892819D01*
X129293999Y-74892819D02*
X129389237Y-74940438D01*
X129389237Y-74940438D02*
X129436856Y-74988057D01*
X129436856Y-74988057D02*
X129532094Y-75130914D01*
X129532094Y-75130914D02*
X129579713Y-75321390D01*
X129579713Y-75321390D02*
X129579713Y-75702342D01*
X129579713Y-75702342D02*
X129532094Y-75797580D01*
X129532094Y-75797580D02*
X129484475Y-75845200D01*
X129484475Y-75845200D02*
X129389237Y-75892819D01*
X129389237Y-75892819D02*
X129198761Y-75892819D01*
X129198761Y-75892819D02*
X129103523Y-75845200D01*
X129103523Y-75845200D02*
X129055904Y-75797580D01*
X129055904Y-75797580D02*
X129008285Y-75702342D01*
X129008285Y-75702342D02*
X129008285Y-75464247D01*
X129008285Y-75464247D02*
X129055904Y-75369009D01*
X129055904Y-75369009D02*
X129103523Y-75321390D01*
X129103523Y-75321390D02*
X129198761Y-75273771D01*
X129198761Y-75273771D02*
X129389237Y-75273771D01*
X129389237Y-75273771D02*
X129484475Y-75321390D01*
X129484475Y-75321390D02*
X129532094Y-75369009D01*
X129532094Y-75369009D02*
X129579713Y-75464247D01*
X132500666Y-89767580D02*
X132548285Y-89815200D01*
X132548285Y-89815200D02*
X132691142Y-89862819D01*
X132691142Y-89862819D02*
X132786380Y-89862819D01*
X132786380Y-89862819D02*
X132929237Y-89815200D01*
X132929237Y-89815200D02*
X133024475Y-89719961D01*
X133024475Y-89719961D02*
X133072094Y-89624723D01*
X133072094Y-89624723D02*
X133119713Y-89434247D01*
X133119713Y-89434247D02*
X133119713Y-89291390D01*
X133119713Y-89291390D02*
X133072094Y-89100914D01*
X133072094Y-89100914D02*
X133024475Y-89005676D01*
X133024475Y-89005676D02*
X132929237Y-88910438D01*
X132929237Y-88910438D02*
X132786380Y-88862819D01*
X132786380Y-88862819D02*
X132691142Y-88862819D01*
X132691142Y-88862819D02*
X132548285Y-88910438D01*
X132548285Y-88910438D02*
X132500666Y-88958057D01*
X132167332Y-88862819D02*
X131548285Y-88862819D01*
X131548285Y-88862819D02*
X131881618Y-89243771D01*
X131881618Y-89243771D02*
X131738761Y-89243771D01*
X131738761Y-89243771D02*
X131643523Y-89291390D01*
X131643523Y-89291390D02*
X131595904Y-89339009D01*
X131595904Y-89339009D02*
X131548285Y-89434247D01*
X131548285Y-89434247D02*
X131548285Y-89672342D01*
X131548285Y-89672342D02*
X131595904Y-89767580D01*
X131595904Y-89767580D02*
X131643523Y-89815200D01*
X131643523Y-89815200D02*
X131738761Y-89862819D01*
X131738761Y-89862819D02*
X132024475Y-89862819D01*
X132024475Y-89862819D02*
X132119713Y-89815200D01*
X132119713Y-89815200D02*
X132167332Y-89767580D01*
X131865666Y-75892819D02*
X132198999Y-75416628D01*
X132437094Y-75892819D02*
X132437094Y-74892819D01*
X132437094Y-74892819D02*
X132056142Y-74892819D01*
X132056142Y-74892819D02*
X131960904Y-74940438D01*
X131960904Y-74940438D02*
X131913285Y-74988057D01*
X131913285Y-74988057D02*
X131865666Y-75083295D01*
X131865666Y-75083295D02*
X131865666Y-75226152D01*
X131865666Y-75226152D02*
X131913285Y-75321390D01*
X131913285Y-75321390D02*
X131960904Y-75369009D01*
X131960904Y-75369009D02*
X132056142Y-75416628D01*
X132056142Y-75416628D02*
X132437094Y-75416628D01*
X131532332Y-74892819D02*
X130865666Y-74892819D01*
X130865666Y-74892819D02*
X131294237Y-75892819D01*
X100242666Y-81385580D02*
X100290285Y-81433200D01*
X100290285Y-81433200D02*
X100433142Y-81480819D01*
X100433142Y-81480819D02*
X100528380Y-81480819D01*
X100528380Y-81480819D02*
X100671237Y-81433200D01*
X100671237Y-81433200D02*
X100766475Y-81337961D01*
X100766475Y-81337961D02*
X100814094Y-81242723D01*
X100814094Y-81242723D02*
X100861713Y-81052247D01*
X100861713Y-81052247D02*
X100861713Y-80909390D01*
X100861713Y-80909390D02*
X100814094Y-80718914D01*
X100814094Y-80718914D02*
X100766475Y-80623676D01*
X100766475Y-80623676D02*
X100671237Y-80528438D01*
X100671237Y-80528438D02*
X100528380Y-80480819D01*
X100528380Y-80480819D02*
X100433142Y-80480819D01*
X100433142Y-80480819D02*
X100290285Y-80528438D01*
X100290285Y-80528438D02*
X100242666Y-80576057D01*
X99861713Y-80576057D02*
X99814094Y-80528438D01*
X99814094Y-80528438D02*
X99718856Y-80480819D01*
X99718856Y-80480819D02*
X99480761Y-80480819D01*
X99480761Y-80480819D02*
X99385523Y-80528438D01*
X99385523Y-80528438D02*
X99337904Y-80576057D01*
X99337904Y-80576057D02*
X99290285Y-80671295D01*
X99290285Y-80671295D02*
X99290285Y-80766533D01*
X99290285Y-80766533D02*
X99337904Y-80909390D01*
X99337904Y-80909390D02*
X99909332Y-81480819D01*
X99909332Y-81480819D02*
X99290285Y-81480819D01*
X121959666Y-78464580D02*
X122007285Y-78512200D01*
X122007285Y-78512200D02*
X122150142Y-78559819D01*
X122150142Y-78559819D02*
X122245380Y-78559819D01*
X122245380Y-78559819D02*
X122388237Y-78512200D01*
X122388237Y-78512200D02*
X122483475Y-78416961D01*
X122483475Y-78416961D02*
X122531094Y-78321723D01*
X122531094Y-78321723D02*
X122578713Y-78131247D01*
X122578713Y-78131247D02*
X122578713Y-77988390D01*
X122578713Y-77988390D02*
X122531094Y-77797914D01*
X122531094Y-77797914D02*
X122483475Y-77702676D01*
X122483475Y-77702676D02*
X122388237Y-77607438D01*
X122388237Y-77607438D02*
X122245380Y-77559819D01*
X122245380Y-77559819D02*
X122150142Y-77559819D01*
X122150142Y-77559819D02*
X122007285Y-77607438D01*
X122007285Y-77607438D02*
X121959666Y-77655057D01*
X121626332Y-77559819D02*
X120959666Y-77559819D01*
X120959666Y-77559819D02*
X121388237Y-78559819D01*
X130722666Y-80115580D02*
X130770285Y-80163200D01*
X130770285Y-80163200D02*
X130913142Y-80210819D01*
X130913142Y-80210819D02*
X131008380Y-80210819D01*
X131008380Y-80210819D02*
X131151237Y-80163200D01*
X131151237Y-80163200D02*
X131246475Y-80067961D01*
X131246475Y-80067961D02*
X131294094Y-79972723D01*
X131294094Y-79972723D02*
X131341713Y-79782247D01*
X131341713Y-79782247D02*
X131341713Y-79639390D01*
X131341713Y-79639390D02*
X131294094Y-79448914D01*
X131294094Y-79448914D02*
X131246475Y-79353676D01*
X131246475Y-79353676D02*
X131151237Y-79258438D01*
X131151237Y-79258438D02*
X131008380Y-79210819D01*
X131008380Y-79210819D02*
X130913142Y-79210819D01*
X130913142Y-79210819D02*
X130770285Y-79258438D01*
X130770285Y-79258438D02*
X130722666Y-79306057D01*
X129865523Y-79544152D02*
X129865523Y-80210819D01*
X130103618Y-79163200D02*
X130341713Y-79877485D01*
X130341713Y-79877485D02*
X129722666Y-79877485D01*
X128208166Y-89133819D02*
X128684356Y-89133819D01*
X128684356Y-89133819D02*
X128684356Y-88133819D01*
X127351023Y-89133819D02*
X127922451Y-89133819D01*
X127636737Y-89133819D02*
X127636737Y-88133819D01*
X127636737Y-88133819D02*
X127731975Y-88276676D01*
X127731975Y-88276676D02*
X127827213Y-88371914D01*
X127827213Y-88371914D02*
X127922451Y-88419533D01*
X113168666Y-80750580D02*
X113216285Y-80798200D01*
X113216285Y-80798200D02*
X113359142Y-80845819D01*
X113359142Y-80845819D02*
X113454380Y-80845819D01*
X113454380Y-80845819D02*
X113597237Y-80798200D01*
X113597237Y-80798200D02*
X113692475Y-80702961D01*
X113692475Y-80702961D02*
X113740094Y-80607723D01*
X113740094Y-80607723D02*
X113787713Y-80417247D01*
X113787713Y-80417247D02*
X113787713Y-80274390D01*
X113787713Y-80274390D02*
X113740094Y-80083914D01*
X113740094Y-80083914D02*
X113692475Y-79988676D01*
X113692475Y-79988676D02*
X113597237Y-79893438D01*
X113597237Y-79893438D02*
X113454380Y-79845819D01*
X113454380Y-79845819D02*
X113359142Y-79845819D01*
X113359142Y-79845819D02*
X113216285Y-79893438D01*
X113216285Y-79893438D02*
X113168666Y-79941057D01*
X112216285Y-80845819D02*
X112787713Y-80845819D01*
X112501999Y-80845819D02*
X112501999Y-79845819D01*
X112501999Y-79845819D02*
X112597237Y-79988676D01*
X112597237Y-79988676D02*
X112692475Y-80083914D01*
X112692475Y-80083914D02*
X112787713Y-80131533D01*
X116879666Y-85036819D02*
X117212999Y-84560628D01*
X117451094Y-85036819D02*
X117451094Y-84036819D01*
X117451094Y-84036819D02*
X117070142Y-84036819D01*
X117070142Y-84036819D02*
X116974904Y-84084438D01*
X116974904Y-84084438D02*
X116927285Y-84132057D01*
X116927285Y-84132057D02*
X116879666Y-84227295D01*
X116879666Y-84227295D02*
X116879666Y-84370152D01*
X116879666Y-84370152D02*
X116927285Y-84465390D01*
X116927285Y-84465390D02*
X116974904Y-84513009D01*
X116974904Y-84513009D02*
X117070142Y-84560628D01*
X117070142Y-84560628D02*
X117451094Y-84560628D01*
X116498713Y-84132057D02*
X116451094Y-84084438D01*
X116451094Y-84084438D02*
X116355856Y-84036819D01*
X116355856Y-84036819D02*
X116117761Y-84036819D01*
X116117761Y-84036819D02*
X116022523Y-84084438D01*
X116022523Y-84084438D02*
X115974904Y-84132057D01*
X115974904Y-84132057D02*
X115927285Y-84227295D01*
X115927285Y-84227295D02*
X115927285Y-84322533D01*
X115927285Y-84322533D02*
X115974904Y-84465390D01*
X115974904Y-84465390D02*
X116546332Y-85036819D01*
X116546332Y-85036819D02*
X115927285Y-85036819D01*
X126404666Y-77289819D02*
X126737999Y-76813628D01*
X126976094Y-77289819D02*
X126976094Y-76289819D01*
X126976094Y-76289819D02*
X126595142Y-76289819D01*
X126595142Y-76289819D02*
X126499904Y-76337438D01*
X126499904Y-76337438D02*
X126452285Y-76385057D01*
X126452285Y-76385057D02*
X126404666Y-76480295D01*
X126404666Y-76480295D02*
X126404666Y-76623152D01*
X126404666Y-76623152D02*
X126452285Y-76718390D01*
X126452285Y-76718390D02*
X126499904Y-76766009D01*
X126499904Y-76766009D02*
X126595142Y-76813628D01*
X126595142Y-76813628D02*
X126976094Y-76813628D01*
X125833237Y-76718390D02*
X125928475Y-76670771D01*
X125928475Y-76670771D02*
X125976094Y-76623152D01*
X125976094Y-76623152D02*
X126023713Y-76527914D01*
X126023713Y-76527914D02*
X126023713Y-76480295D01*
X126023713Y-76480295D02*
X125976094Y-76385057D01*
X125976094Y-76385057D02*
X125928475Y-76337438D01*
X125928475Y-76337438D02*
X125833237Y-76289819D01*
X125833237Y-76289819D02*
X125642761Y-76289819D01*
X125642761Y-76289819D02*
X125547523Y-76337438D01*
X125547523Y-76337438D02*
X125499904Y-76385057D01*
X125499904Y-76385057D02*
X125452285Y-76480295D01*
X125452285Y-76480295D02*
X125452285Y-76527914D01*
X125452285Y-76527914D02*
X125499904Y-76623152D01*
X125499904Y-76623152D02*
X125547523Y-76670771D01*
X125547523Y-76670771D02*
X125642761Y-76718390D01*
X125642761Y-76718390D02*
X125833237Y-76718390D01*
X125833237Y-76718390D02*
X125928475Y-76766009D01*
X125928475Y-76766009D02*
X125976094Y-76813628D01*
X125976094Y-76813628D02*
X126023713Y-76908866D01*
X126023713Y-76908866D02*
X126023713Y-77099342D01*
X126023713Y-77099342D02*
X125976094Y-77194580D01*
X125976094Y-77194580D02*
X125928475Y-77242200D01*
X125928475Y-77242200D02*
X125833237Y-77289819D01*
X125833237Y-77289819D02*
X125642761Y-77289819D01*
X125642761Y-77289819D02*
X125547523Y-77242200D01*
X125547523Y-77242200D02*
X125499904Y-77194580D01*
X125499904Y-77194580D02*
X125452285Y-77099342D01*
X125452285Y-77099342D02*
X125452285Y-76908866D01*
X125452285Y-76908866D02*
X125499904Y-76813628D01*
X125499904Y-76813628D02*
X125547523Y-76766009D01*
X125547523Y-76766009D02*
X125642761Y-76718390D01*
X135290357Y-78542819D02*
X135623690Y-78066628D01*
X135861785Y-78542819D02*
X135861785Y-77542819D01*
X135861785Y-77542819D02*
X135480833Y-77542819D01*
X135480833Y-77542819D02*
X135385595Y-77590438D01*
X135385595Y-77590438D02*
X135337976Y-77638057D01*
X135337976Y-77638057D02*
X135290357Y-77733295D01*
X135290357Y-77733295D02*
X135290357Y-77876152D01*
X135290357Y-77876152D02*
X135337976Y-77971390D01*
X135337976Y-77971390D02*
X135385595Y-78019009D01*
X135385595Y-78019009D02*
X135480833Y-78066628D01*
X135480833Y-78066628D02*
X135861785Y-78066628D01*
X134337976Y-78542819D02*
X134909404Y-78542819D01*
X134623690Y-78542819D02*
X134623690Y-77542819D01*
X134623690Y-77542819D02*
X134718928Y-77685676D01*
X134718928Y-77685676D02*
X134814166Y-77780914D01*
X134814166Y-77780914D02*
X134909404Y-77828533D01*
X133385595Y-78542819D02*
X133957023Y-78542819D01*
X133671309Y-78542819D02*
X133671309Y-77542819D01*
X133671309Y-77542819D02*
X133766547Y-77685676D01*
X133766547Y-77685676D02*
X133861785Y-77780914D01*
X133861785Y-77780914D02*
X133957023Y-77828533D01*
X116308666Y-82877819D02*
X116641999Y-82401628D01*
X116880094Y-82877819D02*
X116880094Y-81877819D01*
X116880094Y-81877819D02*
X116499142Y-81877819D01*
X116499142Y-81877819D02*
X116403904Y-81925438D01*
X116403904Y-81925438D02*
X116356285Y-81973057D01*
X116356285Y-81973057D02*
X116308666Y-82068295D01*
X116308666Y-82068295D02*
X116308666Y-82211152D01*
X116308666Y-82211152D02*
X116356285Y-82306390D01*
X116356285Y-82306390D02*
X116403904Y-82354009D01*
X116403904Y-82354009D02*
X116499142Y-82401628D01*
X116499142Y-82401628D02*
X116880094Y-82401628D01*
X115356285Y-82877819D02*
X115927713Y-82877819D01*
X115641999Y-82877819D02*
X115641999Y-81877819D01*
X115641999Y-81877819D02*
X115737237Y-82020676D01*
X115737237Y-82020676D02*
X115832475Y-82115914D01*
X115832475Y-82115914D02*
X115927713Y-82163533D01*
D11*
%TO.C,R9*%
X134366859Y-83440000D02*
X134674141Y-83440000D01*
X134366859Y-84200000D02*
X134674141Y-84200000D01*
D10*
%TO.C,U4*%
X126565500Y-84532000D02*
X126565500Y-84382000D01*
X127165500Y-84532000D02*
X126565500Y-84532000D01*
X129565500Y-84532000D02*
X128955500Y-84532000D01*
X129565500Y-84532000D02*
X129565500Y-84332000D01*
X129565500Y-81742000D02*
X129565500Y-81532000D01*
X126565500Y-81682000D02*
X126565500Y-81532000D01*
X127165500Y-81532000D02*
X126565500Y-81532000D01*
X129565500Y-81532000D02*
X128955500Y-81532000D01*
X126235500Y-84562000D02*
G75*
G03*
X126235500Y-84562000I-70000J0D01*
G01*
D11*
%TO.C,J3*%
X59365000Y-117655000D02*
X59365000Y-108255000D01*
X61265000Y-117655000D02*
X59365000Y-117655000D01*
X65165000Y-117655000D02*
X63165000Y-117655000D01*
X61265000Y-108255000D02*
X59365000Y-108255000D01*
X65165000Y-108255000D02*
X63165000Y-108255000D01*
%TO.C,C6*%
X121083500Y-84274252D02*
X121083500Y-83751748D01*
X122553500Y-84274252D02*
X122553500Y-83751748D01*
D12*
%TO.C,U5*%
X82924000Y-81941000D02*
X83864000Y-81941000D01*
X82924000Y-81991000D02*
X82924000Y-89161000D01*
X82924000Y-89161000D02*
X90384000Y-89161000D01*
X83864000Y-81941000D02*
X83864000Y-82651000D01*
X83864000Y-82651000D02*
X84844000Y-82651000D01*
X85924000Y-82651000D02*
X87344000Y-82651000D01*
X88434000Y-82651000D02*
X89404000Y-82651000D01*
X89404000Y-81961000D02*
X90384000Y-81961000D01*
X89404000Y-82651000D02*
X89404000Y-81961000D01*
X90384000Y-81991000D02*
X90384000Y-89161000D01*
D11*
%TO.C,U3*%
X107846000Y-84673000D02*
X109346000Y-84673000D01*
X107846000Y-84673000D02*
X106346000Y-84673000D01*
X107846000Y-81453000D02*
X110721000Y-81453000D01*
X107846000Y-81453000D02*
X106346000Y-81453000D01*
%TO.C,R10*%
X133426000Y-82025258D02*
X133426000Y-81550742D01*
X134471000Y-82025258D02*
X134471000Y-81550742D01*
%TO.C,R5*%
X102871000Y-84098641D02*
X102871000Y-83791359D01*
X103631000Y-84098641D02*
X103631000Y-83791359D01*
%TO.C,C5*%
X123242500Y-84274252D02*
X123242500Y-83751748D01*
X124712500Y-84274252D02*
X124712500Y-83751748D01*
%TO.C,R6*%
X130469000Y-77296742D02*
X130469000Y-77771258D01*
X129424000Y-77296742D02*
X129424000Y-77771258D01*
%TO.C,C3*%
X133094500Y-86733748D02*
X133094500Y-87256252D01*
X131624500Y-86733748D02*
X131624500Y-87256252D01*
%TO.C,R7*%
X131075000Y-77771258D02*
X131075000Y-77296742D01*
X132120000Y-77771258D02*
X132120000Y-77296742D01*
%TO.C,C2*%
X100216580Y-80012000D02*
X99935420Y-80012000D01*
X100216580Y-78992000D02*
X99935420Y-78992000D01*
%TO.C,C7*%
X122553500Y-80195748D02*
X122553500Y-80718252D01*
X121083500Y-80195748D02*
X121083500Y-80718252D01*
%TO.C,C4*%
X130562336Y-81132000D02*
X130346664Y-81132000D01*
X130562336Y-80412000D02*
X130346664Y-80412000D01*
%TO.C,L1*%
X127878721Y-86739000D02*
X128204279Y-86739000D01*
X127878721Y-87759000D02*
X128204279Y-87759000D01*
%TO.C,C1*%
X111017164Y-80412000D02*
X111232836Y-80412000D01*
X111017164Y-81132000D02*
X111232836Y-81132000D01*
%TO.C,R2*%
X113935742Y-84059500D02*
X114410258Y-84059500D01*
X113935742Y-85104500D02*
X114410258Y-85104500D01*
%TO.C,R8*%
X125741000Y-79295258D02*
X125741000Y-78820742D01*
X126786000Y-79295258D02*
X126786000Y-78820742D01*
%TO.C,R11*%
X134884758Y-80040500D02*
X134410242Y-80040500D01*
X134884758Y-78995500D02*
X134410242Y-78995500D01*
%TO.C,R1*%
X113427742Y-81900500D02*
X113902258Y-81900500D01*
X113427742Y-82945500D02*
X113902258Y-82945500D01*
%TD*%
M02*
